<svg xmlns="http://www.w3.org/2000/svg" width="30" height="30" viewBox="0 0 30 30" fill="none">
  <path d="M3.98438 23.2031H20.8594V6.79688H3.98438V23.2031ZM5.85938 8.90625C5.85938 8.77734 5.96484 8.67188 6.09375 8.67188H9.375C9.50391 8.67188 9.60938 8.77734 9.60938 8.90625V10.3125C9.60938 10.4414 9.50391 10.5469 9.375 10.5469H6.09375C5.96484 10.5469 5.85938 10.4414 5.85938 10.3125V8.90625Z" fill="url(#paint0_linear_42_335)"/>
  <path d="M21.0938 4.6875C22.1279 4.6875 22.9688 5.52832 22.9688 6.5625V11.0156L26.7188 8.85645C27.3428 8.49609 28.125 8.94727 28.125 9.66797V20.335C28.125 21.0527 27.3428 21.5039 26.7188 21.1436L22.9688 18.9844V23.4375C22.9688 24.4717 22.1279 25.3125 21.0938 25.3125H3.75C2.71582 25.3125 1.875 24.4717 1.875 23.4375V6.5625C1.875 5.52832 2.71582 4.6875 3.75 4.6875H21.0938ZM3.98438 6.79688V23.2031H20.8594V6.79688H3.98438ZM22.9688 13.4443V16.5586L26.0156 18.3105V11.6895L22.9688 13.4443ZM9.375 8.67188C9.50391 8.67188 9.60938 8.77734 9.60938 8.90625V10.3125C9.60938 10.4414 9.50391 10.5469 9.375 10.5469H6.09375C5.96484 10.5469 5.85938 10.4414 5.85938 10.3125V8.90625C5.85938 8.77734 5.96484 8.67188 6.09375 8.67188H9.375Z" fill="#333333"/>
  <defs>
    <linearGradient id="paint0_linear_42_335" x1="12.4219" y1="6.79688" x2="12.4219" y2="23.2031" gradientUnits="userSpaceOnUse">
      <stop stop-color="#5CBFFB"/>
      <stop offset="1" stop-color="#79E5FD"/>
    </linearGradient>
  </defs>
</svg>